<svg width="44" height="43" viewBox="0 0 44 43" fill="none" xmlns="http://www.w3.org/2000/svg">
<path d="M14.1476 34.4724C11.8107 34.5219 9.96037 36.4741 10.0099 38.8111C10.0595 41.1481 11.9909 43.02 14.3278 42.9705C16.6648 42.9209 18.5363 40.9683 18.4868 38.6313C18.4372 36.2944 16.4846 34.4228 14.1476 34.4724ZM0.679688 0.750328L0.769788 4.99937L5.01883 4.90927L13.009 20.8722L10.2513 26.1381C9.924 26.7402 9.74766 27.4453 9.76343 28.1889C9.81299 30.5259 11.7656 32.3974 14.1026 32.3479L39.5968 31.8073L39.5067 27.5582L14.9048 28.0799C14.6073 28.0862 14.3687 27.8575 14.3624 27.56L14.4207 27.3037L16.2594 23.8002L32.087 23.4646C33.6804 23.4308 35.0641 22.53 35.7586 21.1975L43.072 7.24807C43.2356 6.94703 43.3129 6.58406 43.3053 6.22289C43.2805 5.05441 42.3042 4.11864 41.1357 4.14342L9.71403 4.80971L7.62688 0.603014L0.679688 0.750328ZM35.3929 34.0219C33.0559 34.0714 31.2056 36.0236 31.2552 38.3606C31.3047 40.6976 33.2361 42.5695 35.5731 42.52C37.91 42.4704 39.7816 40.5178 39.732 38.1808C39.6824 35.8439 37.7298 33.9723 35.3929 34.0219Z" fill="black"/>
</svg>
